PathFileType	4	(X/Y/Z)	W18_1_OpenSim.trc																																																																																																																						
DataRate	CameraRate	NumFrames	NumMarkers	Units	OrigDataRate	OrigDataStartFrame	OrigNumFrames																																																																																																																		
100	100	8	40	mm	100	751	3000																																																																																																																		
Frame#	Time	R.ASIS			R.PSIS			S2			L.PSIS			L.ASIS			R.TH1			R.TH2			R.TH3			R.MKnee			R.Knee			R.SH1			R.SH2			R.SH3			R.SH4			R.Ankle			R.MAnkle			R.Heel			R.MT5			R.MT1			L.TH1			L.TH2			L.TH3			L.TH4			L.MKnee			L.Knee			L.SH1			L.SH2			L.SH3			L.Ankle			L.MAnkle			L.Heel			L.MT5			L.MT1			R.Acr			L.Acr			C7			T10			Clav			Sternum			R.Back		
		X1	Y1	Z1	X2	Y2	Z2	X3	Y3	Z3	X4	Y4	Z4	X5	Y5	Z5	X6	Y6	Z6	X7	Y7	Z7	X8	Y8	Z8	X9	Y9	Z9	X10	Y10	Z10	X11	Y11	Z11	X12	Y12	Z12	X13	Y13	Z13	X14	Y14	Z14	X15	Y15	Z15	X16	Y16	Z16	X17	Y17	Z17	X18	Y18	Z18	X19	Y19	Z19	X20	Y20	Z20	X21	Y21	Z21	X22	Y22	Z22	X23	Y23	Z23	X24	Y24	Z24	X25	Y25	Z25	X26	Y26	Z26	X27	Y27	Z27	X28	Y28	Z28	X29	Y29	Z29	X30	Y30	Z30	X31	Y31	Z31	X32	Y32	Z32	X33	Y33	Z33	X34	Y34	Z34	X35	Y35	Z35	X36	Y36	Z36	X37	Y37	Z37	X38	Y38	Z38	X39	Y39	Z39	X40	Y40	Z40
751	7.5	918.9738	1024.7655	-392.3621	730.3265	1039.6008	-494.667	722.7411	1033.8439	-539.7719	728.079	1037.573	-589.8237	904.2828	1022.421	-687.7734	829.2068	702.8185	-373.4994	749.7929	721.467	-360.6628	723.8702	615.2161	-376.2297	708.6412	491.1993	-504.6634	709.2971	493.6549	-388.4671	645.3582	336.4416	-384.5552	598.4241	235.8948	-403.9084	570.2786	370.8048	-371.8991	525.9753	266.8212	-383.5243	470.4307	111.9689	-395.4384	511.5962	119.7009	-488.8712	401.6153	93.3467	-452.1709	567.4952	38.0791	-366.2742	612.1727	35.2691	-457.034	973.696	757.8588	-704.0037	1007.0272	654.4594	-696.4398	896.6796	727.8322	-719.8146	933.1326	625.1553	-705.5825	1033.7969	501.3558	-578.9087	1032.9029	512.5684	-690.3332	1078.8494	393.6503	-717.2695	1001.3796	366.4068	-710.8416	1040.843	263.6811	-705.9055	1174.0525	90.7373	-715.1159	1201.5064	113.3107	-618.9518	1136.6853	26.2661	-657.3984	1292.0587	96.3577	-738.1628	1325.3513	127.2276	-640.2062	912.375	1433.217	-390.949	846.8622	1420.1175	-705.2261	834.9386	1470.1262	-542.4353	769.5084	1143.7288	-530.3812	957.7254	1357.9592	-558.1449	974.6206	1216.7681	-548.887	756.5273	1379.6941	-440.9476
752	7.51	919.6929	1022.24	-393.9944	731.4445	1037.3391	-497.4303	723.8639	1031.7059	-542.5288	729.8862	1035.6543	-592.6168	906.4559	1020.7439	-689.5998	829.514	700.7418	-375.0808	749.8384	719.5288	-362.8377	724.1101	613.1509	-377.8896	709.4115	488.6333	-505.5258	709.2165	491.8244	-389.2959	640.1417	336.6152	-384.6074	589.7833	237.7032	-403.2085	566.2235	373.7381	-372.7031	518.0489	271.4965	-383.4604	457.5829	117.3949	-394.3859	499.1243	124.0097	-487.4601	388.4807	102.6569	-451.3205	550.8198	38.2069	-365.8959	594.4862	34.549	-456.9913	976.9869	756.6018	-704.7219	1010.1196	653.2256	-696.2292	899.9629	726.6077	-720.77	936.2416	623.9698	-705.6722	1035.2842	500.9825	-578.4758	1034.9968	511.3596	-689.5374	1079.8223	391.291	-715.7492	1002.2077	364.821	-709.3655	1040.7341	261.8469	-703.7933	1171.3471	89.2427	-712.6102	1199.4755	110.8688	-616.0819	1132.6202	26.4349	-654.736	1288.8782	91.9195	-735.7615	1323.0443	121.7299	-637.8593	912.4756	1431.5845	-393.2918	847.289	1417.9038	-707.7145	835.1104	1468.2075	-544.9665	770.6151	1141.4961	-532.3866	958.0992	1356.205	-560.4592	975.6175	1215.0476	-550.9896	756.6726	1377.6374	-443.4525
753	7.52	920.6895	1020.1387	-395.902	732.645	1035.4071	-500.1464	725.1536	1029.9276	-545.2612	731.7211	1034.1404	-595.3632	908.6387	1019.696	-691.621	831.0148	698.7279	-376.9035	751.0545	717.2703	-365.1707	725.9852	610.6454	-379.5896	712.3611	485.5464	-506.3325	711.3101	489.622	-390.0559	636.7881	336.821	-384.5485	582.8212	239.758	-402.3312	564.2527	376.8597	-373.5004	512.0292	276.5929	-383.3049	446.2344	123.5985	-393.1039	487.9963	128.7863	-485.7587	376.9839	113.4205	-450.2471	534.4996	38.6626	-365.4376	576.936	33.937	-456.9362	980.4083	756.0193	-705.7766	1013.5203	652.763	-696.298	903.3505	725.9586	-721.5927	939.634	623.4406	-705.5886	1037.7078	501.5518	-578.1576	1037.6526	510.8245	-688.8021	1080.8892	389.2158	-713.9802	1002.9202	364.255	-708.1161	1039.4977	260.7307	-702.0119	1165.4939	87.5871	-710.4065	1194.2034	107.6709	-613.3492	1124.3436	27.0735	-652.653	1282.4488	85.6111	-733.1281	1317.6029	113.5473	-635.1	912.543	1430.2583	-395.6614	847.8504	1416.0328	-710.3118	835.3521	1466.6694	-547.6183	771.7642	1139.6438	-534.471	958.5128	1354.8142	-562.8564	976.6848	1213.7166	-553.2272	756.8029	1375.931	-446.135
754	7.53	921.9495	1018.5281	-398.0987	733.8929	1033.8439	-502.7228	726.5371	1028.5607	-547.8702	733.4943	1033.0839	-597.9669	910.7355	1019.3348	-693.7982	833.7505	696.7757	-378.9564	753.5134	714.6645	-367.617	729.5653	607.6861	-381.2894	717.5361	481.9669	-507.0757	715.6497	487.0437	-390.7387	635.4785	337.0746	-384.4107	577.77	242.0778	-401.3429	564.5499	380.1292	-374.2863	508.1814	282.0649	-383.085	436.6882	130.6748	-391.661	478.447	134.0632	-483.8575	367.5096	125.7271	-448.9887	518.6772	39.7144	-364.912	559.6709	33.5939	-456.8604	983.7218	756.0239	-707.2287	1016.9364	652.9476	-696.7526	906.5926	725.8354	-722.3829	943.0043	623.4944	-705.4804	1040.6186	502.8408	-577.9976	1040.6837	510.9282	-688.2361	1082.0945	387.5938	-712.1549	1003.6293	364.702	-707.4125	1037.4609	260.4224	-700.9174	1157.2122	85.9249	-708.7222	1186.2689	104.1365	-611.0192	1112.8384	28.1518	-651.3231	1273.4709	78.0832	-730.4549	1309.5654	103.5953	-632.142	912.5826	1429.2688	-398.0377	848.5343	1414.5762	-712.9869	835.6603	1465.568	-550.3508	772.8868	1138.2439	-536.5753	958.9517	1353.8413	-565.3033	977.7803	1212.829	-555.5702	756.9058	1374.6469	-448.9513
755	7.54	923.4103	1017.4523	-400.5704	735.1227	1032.6589	-505.0738	727.9091	1027.6209	-550.2607	735.1019	1032.5026	-600.3363	912.6375	1019.6738	-696.0768	837.7148	694.8915	-381.2143	757.2394	711.7068	-370.1256	734.871	604.2891	-382.9622	724.9308	477.9576	-507.7692	722.2428	484.1064	-391.3602	636.3621	337.3811	-384.263	574.8359	244.6686	-400.3546	567.2578	383.4889	-375.0624	506.7239	287.8472	-382.8398	429.232	138.7175	-390.1583	470.702	139.8973	-481.898	360.4499	139.6047	-447.6146	503.5652	41.6961	-364.3427	542.9108	33.7321	-456.7501	986.7358	756.5612	-709.0829	1020.1267	653.6807	-697.6679	909.507	726.2091	-723.2764	946.1241	624.0768	-705.5549	1043.5658	504.6092	-578.0468	1043.9087	511.6189	-687.9456	1083.3867	386.5248	-710.4943	1004.364	366.0916	-707.5383	1034.8732	260.9489	-700.7961	1147.0912	84.3743	-707.6784	1176.2352	100.6912	-609.2937	1099.0721	29.5684	-650.7596	1262.5298	70.0317	-727.981	1299.4122	92.9106	-629.2817	912.6019	1428.6445	-400.3954	849.327	1413.5962	-715.6913	836.0302	1464.9402	-553.1087	773.9042	1137.3543	-538.6367	959.398	1353.3241	-567.7543	978.841	1212.4175	-557.9749	756.9724	1373.851	-451.8392
756	7.55	924.9648	1016.9247	-403.2673	736.2465	1031.8274	-507.1345	729.1548	1027.0797	-552.3589	736.4475	1032.3684	-602.4014	914.2404	1020.6802	-698.3977	842.8506	693.0928	-383.6403	762.1949	708.4246	-372.6384	741.8619	600.5087	-384.6002	734.4714	473.6252	-508.4478	731.0163	480.8574	-391.9613	639.5218	337.7463	-384.1974	574.1629	247.5313	-399.5057	572.4433	386.8809	-375.8384	507.7942	293.8625	-382.626	424.1151	147.803	-388.7196	464.973	146.3596	-480.0559	356.1585	155.0078	-446.225	489.4562	44.9627	-363.7667	526.9514	34.5985	-456.5916	989.3273	757.5906	-711.2825	1022.9276	654.8853	-699.0637	911.9953	727.0582	-724.4066	948.8586	625.1398	-706.0223	1046.1945	506.6299	-578.3644	1047.1329	512.7988	-688.0077	1084.5897	385.9953	-709.1953	1005.0237	368.2677	-708.6638	1031.8267	262.2351	-701.791	1135.515	83.0108	-707.2921	1164.5754	97.6588	-608.2789	1083.8315	31.1742	-650.8527	1250.0353	62.0844	-725.9545	1287.5323	82.4335	-626.8351	912.6023	1428.4039	-402.7043	850.2156	1413.1365	-718.3607	836.4486	1464.7924	-555.8229	774.7436	1137.0012	-540.6087	959.8299	1353.2684	-570.152	979.785	1212.4763	-560.3835	756.9963	1373.5831	-454.7201
757	7.56	926.4744	1016.9207	-406.0995	737.1774	1031.291	-508.8766	730.1741	1026.8669	-554.1324	737.461	1032.6057	-604.1314	915.4646	1022.2747	-700.7086	849.053	691.4133	-386.1901	768.2792	704.8834	-375.0947	750.428	596.4438	-386.2122	746.0014	469.1298	-509.1636	741.8056	477.3898	-392.6011	644.9455	338.1944	-384.3062	575.7991	250.6739	-398.9337	580.0654	390.2699	-376.637	511.4264	300.0341	-382.5148	421.5247	157.966	-387.4721	461.4515	153.5093	-478.5124	354.91	171.7989	-444.9486	476.718	49.8192	-363.239	512.1579	36.4313	-456.3804	991.4437	759.0465	-713.7229	1025.2457	656.471	-700.8946	914.0264	728.3405	-725.8614	951.1356	626.611	-707.0242	1048.2795	508.6986	-579.0137	1050.1054	514.3016	-688.4625	1085.3975	385.8779	-708.3964	1005.359	370.9866	-710.7805	1028.2345	264.0991	-703.8491	1122.7056	81.8707	-707.4961	1151.6519	95.2202	-607.9838	1067.6705	32.8164	-651.4315	1236.2604	54.7255	-724.5707	1274.2412	72.875	-625.0655	912.5708	1428.5419	-404.9334	851.1892	1413.2124	-720.9256	836.8859	1465.0983	-558.4185	775.3589	1137.1653	-542.4736	960.2225	1353.6433	-572.433	980.529	1212.958	-562.7262	756.9689	1373.8401	-457.5093
758	7.57	927.7879	1017.3756	-408.9398	737.8523	1030.9735	-510.3199	730.9	1026.8906	-555.6	738.1114	1033.1106	-605.5476	916.2723	1024.335	-702.9706	856.1774	689.9089	-388.8145	775.3401	701.1892	-377.4401	760.3863	592.2406	-387.8189	759.2747	464.6845	-509.9768	754.3569	473.8552	-393.3431	652.521	338.7775	-384.6618	579.6914	254.1152	-398.7424	589.9653	393.6567	-377.4919	517.5402	306.3015	-382.579	421.5719	169.1565	-386.527	460.3001	161.3518	-477.4217	356.8653	189.7133	-443.9341	465.7724	56.4332	-362.8379	498.9533	39.4009	-456.1295	993.0752	760.802	-716.2809	1027.0137	658.296	-703.0584	915.5933	729.9712	-727.6541	952.8855	628.3719	-708.5825	1049.6792	510.6326	-580.0373	1052.4911	515.902	-689.3218	1085.4139	385.9746	-708.1672	1005.0033	373.9518	-713.6891	1023.8798	266.2875	-706.7208	1108.8127	80.9636	-708.1617	1137.73	93.4255	-608.3259	1050.9476	34.3718	-652.3155	1221.411	48.279	-723.9106	1259.8073	64.679	-624.1121	912.4758	1429.0251	-407.0511	852.238	1413.8087	-723.3248	837.295	1465.8088	-560.8277	775.7402	1137.7849	-544.2432	960.5474	1354.3901	-574.5369	981.0085	1213.7875	-564.9275	756.8712	1374.5732	-460.1344
